<svg width="40" height="40" viewBox="0 0 40 40" fill="none" xmlns="http://www.w3.org/2000/svg">
<path d="M35.4375 5.5125C35.4375 3.01875 33.4188 1 30.925 1H9.075C6.58125 1 4.5625 3.01875 4.5625 5.5125V34.4875C4.5625 36.9813 6.58125 39 9.075 39H30.925C33.4188 39 35.4375 36.9813 35.4375 34.4875V5.5125ZM33.0625 34.4875C33.0625 35.675 32.1125 36.625 30.925 36.625H9.075C7.8875 36.625 6.9375 35.675 6.9375 34.4875V5.5125C6.9375 4.325 7.8875 3.375 9.075 3.375H30.925C32.1125 3.375 33.0625 4.325 33.0625 5.5125V34.4875Z" fill="#C2F6C8"/>
<path d="M12.7559 22.3746H26.7684C27.1246 22.3746 27.4809 22.2559 27.7184 21.8996C27.9559 21.6621 28.0746 21.3059 27.9559 20.9496C27.4809 18.0996 25.6996 15.8434 23.3246 14.7746C24.0371 13.9434 24.5121 12.8746 24.5121 11.5684C24.5121 8.95586 22.3746 6.81836 19.7621 6.81836C17.1496 6.81836 15.0121 8.95586 15.0121 11.5684C15.0121 12.7559 15.4871 13.8246 16.1996 14.7746C13.8246 15.9621 11.9246 18.2184 11.5684 20.9496C11.5684 21.3059 11.5684 21.6621 11.8059 21.8996C12.0434 22.2559 12.3996 22.3746 12.7559 22.3746ZM17.3871 11.6871C17.3871 10.3809 18.4559 9.31211 19.7621 9.31211C21.0684 9.31211 22.1371 10.3809 22.1371 11.6871C22.1371 12.9934 21.0684 14.0621 19.7621 14.0621C18.4559 14.0621 17.3871 12.9934 17.3871 11.6871ZM19.7621 16.4371C22.1371 16.4371 24.2746 17.8621 25.2246 19.9996H14.2996C15.2496 17.8621 17.3871 16.4371 19.7621 16.4371Z" fill="#C2F6C8"/>
<path d="M29.5 25.9375H10.5C9.7875 25.9375 9.3125 26.4125 9.3125 27.125C9.3125 27.8375 9.7875 28.3125 10.5 28.3125H29.5C30.2125 28.3125 30.6875 27.8375 30.6875 27.125C30.6875 26.4125 30.2125 25.9375 29.5 25.9375Z" fill="#C2F6C8"/>
<path d="M29.5 30.6875H10.5C9.7875 30.6875 9.3125 31.1625 9.3125 31.875C9.3125 32.5875 9.7875 33.0625 10.5 33.0625H29.5C30.2125 33.0625 30.6875 32.5875 30.6875 31.875C30.6875 31.1625 30.2125 30.6875 29.5 30.6875Z" fill="#C2F6C8"/>
</svg>
