<svg width="40" height="40" viewBox="0 0 40 40" fill="none" xmlns="http://www.w3.org/2000/svg">
<g clip-path="url(#clip0_61586_25258)">
<path d="M20.4141 12.6851H25.1791V35.9997H20.4141V12.6851Z" fill="#C2F6C8"/>
<path d="M11.1476 11.4941C7.20642 11.4941 4 14.7005 4 18.6417V36H8.76506V28.6823H13.5301V36.0001H18.2952V18.6417C18.2951 14.7005 15.0888 11.4941 11.1476 11.4941ZM13.5301 23.9172H8.76506V18.6417C8.76506 17.3279 9.83384 16.2592 11.1476 16.2592C12.4613 16.2592 13.53 17.3279 13.53 18.6417V23.9172H13.5301Z" fill="#C2F6C8"/>
<path d="M34.3398 5.66127L31.2435 0L28.1472 5.66127L22.4858 8.75756L28.1472 11.8539L31.2435 17.5151L34.3398 11.8539L40.0011 8.75756L34.3398 5.66127Z" fill="#C2F6C8"/>
</g>
<defs>
<clipPath id="clip0_61586_25258">
<rect width="40" height="40" fill="white"/>
</clipPath>
</defs>
</svg>
