<svg width="40" height="40" viewBox="0 0 40 40" fill="none" xmlns="http://www.w3.org/2000/svg">
<path d="M27.8582 11.0631V8.9202C27.8582 8.72377 27.6975 8.56306 27.501 8.56306H10.3582C10.1618 8.56306 10.001 8.72377 10.001 8.9202V11.0631C10.001 11.2595 10.1618 11.4202 10.3582 11.4202H27.501C27.6975 11.4202 27.8582 11.2595 27.8582 11.0631ZM10.3582 14.9916C10.1618 14.9916 10.001 15.1523 10.001 15.3488V17.4916C10.001 17.6881 10.1618 17.8488 10.3582 17.8488H18.5725C18.7689 17.8488 18.9296 17.6881 18.9296 17.4916V15.3488C18.9296 15.1523 18.7689 14.9916 18.5725 14.9916H10.3582ZM27.1439 20.1702C21.818 20.1702 17.501 24.4872 17.501 29.8131C17.501 35.139 21.818 39.4559 27.1439 39.4559C32.4698 39.4559 36.7868 35.139 36.7868 29.8131C36.7868 24.4872 32.4698 20.1702 27.1439 20.1702ZM31.943 34.6122C30.6618 35.8934 28.9564 36.5988 27.1439 36.5988C25.3314 36.5988 23.626 35.8934 22.3448 34.6122C21.0635 33.3309 20.3582 31.6256 20.3582 29.8131C20.3582 28.0006 21.0635 26.2952 22.3448 25.014C23.626 23.7327 25.3314 23.0273 27.1439 23.0273C28.9564 23.0273 30.6618 23.7327 31.943 25.014C33.2243 26.2952 33.9296 28.0006 33.9296 29.8131C33.9296 31.6256 33.2243 33.3309 31.943 34.6122ZM31.1171 26.4202H29.1394C29.0234 26.4202 28.9162 26.4738 28.8493 26.5675L26.0144 30.4872L24.9832 29.0631C24.9502 29.0171 24.9066 28.9797 24.8561 28.954C24.8056 28.9284 24.7496 28.9153 24.693 28.9157H22.7243C22.4341 28.9157 22.2644 29.2461 22.4341 29.4827L25.7287 34.0407C25.8716 34.2372 26.1618 34.2372 26.3046 34.0407L31.4028 26.9872C31.5769 26.7506 31.4073 26.4202 31.1171 26.4202ZM16.7868 35.1702H6.42962V3.74163H31.4296V19.0988C31.4296 19.2952 31.5903 19.4559 31.7868 19.4559H34.2868C34.4832 19.4559 34.6439 19.2952 34.6439 19.0988V1.95592C34.6439 1.16574 34.0055 0.527344 33.2153 0.527344H4.6439C3.85372 0.527344 3.21533 1.16574 3.21533 1.95592V36.9559C3.21533 37.7461 3.85372 38.3845 4.6439 38.3845H16.7868C16.9832 38.3845 17.1439 38.2238 17.1439 38.0273V35.5273C17.1439 35.3309 16.9832 35.1702 16.7868 35.1702Z" fill="#C2F6C8"/>
</svg>
