<svg width="36" height="36" viewBox="0 0 36 36" fill="none" xmlns="http://www.w3.org/2000/svg">
<path d="M18.0003 1.80005C14.7962 1.80005 11.6641 2.75016 9.00006 4.53024C6.33599 6.31032 4.25959 8.84041 3.03345 11.8006C1.80731 14.7607 1.4865 18.018 2.11158 21.1605C2.73666 24.303 4.27956 27.1896 6.54517 29.4552C8.81078 31.7208 11.6973 33.2637 14.8398 33.8888C17.9823 34.5138 21.2396 34.193 24.1998 32.9669C27.1599 31.7408 29.69 29.6644 31.4701 27.0003C33.2502 24.3362 34.2003 21.2041 34.2003 18C34.1954 13.705 32.4871 9.58732 29.4501 6.55029C26.413 3.51325 22.2953 1.80491 18.0003 1.80005ZM18.0003 32.04C15.7701 32.04 13.4351 29.1651 12.2763 24.48H23.7243C22.5655 29.1651 20.2305 32.04 18.0003 32.04ZM11.8378 22.32C11.4145 19.4556 11.4145 16.5445 11.8378 13.68H24.1628C24.377 15.11 24.4831 16.5541 24.4803 18C24.4831 19.446 24.377 20.8901 24.1628 22.32H11.8378ZM3.9603 18C3.96108 16.5329 4.19288 15.0751 4.64718 13.68H9.66918C9.25734 16.5453 9.25734 19.4548 9.66918 22.32H4.64718C4.19288 20.925 3.96108 19.4672 3.9603 18ZM18.0003 3.96005C20.2305 3.96005 22.5655 6.83501 23.7243 11.52H12.2763C13.4351 6.83501 15.7701 3.96005 18.0003 3.96005ZM26.3314 13.68H31.3534C32.269 16.4873 32.269 19.5128 31.3534 22.32H26.3314C26.5362 20.8891 26.6394 19.4455 26.6403 18C26.6394 16.5546 26.5362 15.111 26.3314 13.68ZM30.443 11.52H25.9426C25.462 9.17107 24.5196 6.94093 23.1703 4.95905C26.3003 6.20732 28.8801 8.53468 30.443 11.52ZM12.8303 4.95905C11.481 6.94093 10.5386 9.17107 10.058 11.52H5.55762C7.12051 8.53468 9.70034 6.20732 12.8303 4.95905ZM5.55762 24.48H10.058C10.5386 26.829 11.481 29.0592 12.8303 31.041C9.70034 29.7928 7.12051 27.4654 5.55762 24.48ZM23.1703 31.041C24.5196 29.0592 25.462 26.829 25.9426 24.48H30.443C28.8801 27.4654 26.3003 29.7928 23.1703 31.041Z" fill="#1D4645"/>
</svg>
