<svg width="36" height="36" viewBox="0 0 36 36" fill="none" xmlns="http://www.w3.org/2000/svg">
<path d="M29.5527 3.4502C30.7103 3.45027 31.6533 4.37962 31.6533 5.52344V21.542C35.6415 30.0372 35.3763 29.471 35.3945 29.5176C35.9704 30.9789 34.8743 32.5497 33.293 32.5498H2.70703C1.96243 32.5498 1.26642 32.1878 0.845703 31.5811C0.379855 30.909 0.348722 30.0584 0.631836 29.4551L4.34961 21.542V5.52344C4.34961 4.37957 5.29255 3.4502 6.4502 3.4502H29.5527ZM2.60352 30.3008C2.58826 30.359 2.63357 30.4268 2.70703 30.4268H12.2891L13.4209 26.8555C13.5614 26.412 13.9774 26.1104 14.4473 26.1104H21.5557C22.0254 26.1104 22.4416 26.4121 22.582 26.8555L23.7129 30.4268H33.293C33.3666 30.4267 33.4101 30.3589 33.3945 30.3008L29.8916 22.8379H6.11133L2.60352 30.3008ZM14.543 30.4268H21.46L20.7646 28.2334H15.2373L14.543 30.4268ZM6.5 20.7148H29.5029V5.57324H6.5V20.7148Z" fill="#1D4645" stroke="#1D4645" stroke-width="0.1"/>
</svg>
