<svg width="36" height="34" viewBox="0 0 36 34" fill="none" xmlns="http://www.w3.org/2000/svg">
<path d="M22.8223 0.475586C23.2122 0.31105 23.6641 0.458392 23.8818 0.821289L26.3223 4.88867C26.4851 5.15992 26.7526 5.35199 27.0615 5.41992L31.666 6.43262C32.0857 6.5249 32.371 6.91597 32.3301 7.34375L31.8828 12.0205C31.8526 12.3375 31.9551 12.6531 32.166 12.8916L35.3018 16.4365C35.5861 16.7581 35.5861 17.2419 35.3018 17.5635L32.166 21.1084C31.9551 21.3469 31.8526 21.6625 31.8828 21.9795L32.3301 26.6562C32.371 27.084 32.0857 27.4751 31.666 27.5674L27.0615 28.5801C26.7526 28.648 26.4851 28.8401 26.3223 29.1113L23.8818 33.1787C23.6641 33.5416 23.2122 33.6889 22.8223 33.5244L18.4473 31.6787C18.1614 31.5581 17.8386 31.5581 17.5527 31.6787L13.1777 33.5244C12.7878 33.6889 12.3359 33.5416 12.1182 33.1787L9.67773 29.1113C9.51494 28.8401 9.24744 28.648 8.93848 28.5801L4.33398 27.5674C3.91428 27.4751 3.62902 27.084 3.66992 26.6562L4.11719 21.9795C4.14737 21.6625 4.04494 21.3469 3.83398 21.1084L0.698242 17.5635C0.41388 17.2419 0.41388 16.7581 0.698242 16.4365L3.83398 12.8916C4.04494 12.6531 4.14737 12.3375 4.11719 12.0205L3.66992 7.34375C3.62902 6.91597 3.91428 6.5249 4.33398 6.43262L8.93848 5.41992C9.24744 5.35199 9.51494 5.15992 9.67773 4.88867L12.1182 0.821289C12.3359 0.458391 12.7878 0.31105 13.1777 0.475586L17.5527 2.32129C17.8386 2.44191 18.1614 2.44191 18.4473 2.32129L22.8223 0.475586ZM22.751 4.78809C22.4533 4.30106 21.8434 4.10599 21.3184 4.33008L18.3301 5.60547C18.1189 5.69561 17.8798 5.69703 17.668 5.6084L14.6084 4.32715C14.0782 4.10522 13.4648 4.3086 13.1729 4.80371L11.5479 7.56055C11.4274 7.76485 11.2269 7.90984 10.9951 7.95996L7.78711 8.65234C7.21956 8.77495 6.83261 9.30158 6.88477 9.87988L7.17578 13.1084C7.19648 13.3388 7.12251 13.5676 6.9707 13.7422L4.80078 16.2373C4.42111 16.6739 4.42485 17.3247 4.80957 17.7568L6.96387 20.1768C7.11976 20.3518 7.19648 20.5839 7.17578 20.8174L6.88281 24.1211C6.83159 24.6989 7.21915 25.2253 7.78613 25.3477L11.0039 26.042C11.2313 26.0911 11.4285 26.2312 11.5498 26.4297L13.249 29.2119C13.5467 29.6989 14.1566 29.894 14.6816 29.6699L17.6699 28.3945C17.8811 28.3044 18.1202 28.303 18.332 28.3916L21.3916 29.6729C21.9218 29.8948 22.5352 29.6914 22.8271 29.1963L24.457 26.4307C24.575 26.2306 24.77 26.0871 24.9961 26.0342L28.2334 25.2773C28.7915 25.1468 29.1687 24.6246 29.1172 24.0537L28.8242 20.8184C28.8031 20.5844 28.8799 20.3512 29.0361 20.1758L31.1904 17.7568C31.5751 17.3247 31.5789 16.6739 31.1992 16.2373L29.0293 13.7422C28.8775 13.5676 28.8035 13.3388 28.8242 13.1084L29.1152 9.87988C29.1674 9.30158 28.7804 8.77495 28.2129 8.65234L24.9961 7.95801C24.7687 7.9089 24.5715 7.76882 24.4502 7.57031L22.751 4.78809ZM22.626 12.0674C22.9613 11.7356 23.5026 11.7405 23.832 12.0781L24.7266 12.9941C25.0525 13.3284 25.0476 13.8629 24.7158 14.1914L16.8799 21.9453C16.5487 22.273 16.0148 22.273 15.6836 21.9453L11.2969 17.6045C10.9607 17.2718 10.9607 16.7282 11.2969 16.3955L12.1738 15.5273C12.5022 15.2025 13.0301 15.1997 13.3623 15.5205L15.4746 17.5615C15.9241 17.9959 16.6377 17.9914 17.082 17.5518L22.626 12.0674Z" fill="#1D4645" stroke="#C2F6C8" stroke-width="0.3"/>
</svg>
