<svg width="36" height="32" viewBox="0 0 36 32" fill="none" xmlns="http://www.w3.org/2000/svg">
<mask id="path-1-inside-1_63758_187" fill="white">
<path d="M17.8146 28.9C17.9176 28.9 18.0206 28.8742 18.1236 28.8225C18.2266 28.7708 18.3038 28.7192 18.3553 28.6675L31.0223 15.9575C31.3312 15.6475 31.5565 15.2987 31.6981 14.9113C31.8397 14.5237 31.9105 14.1362 31.9105 13.7487C31.9105 13.3354 31.8397 12.9415 31.6981 12.5669C31.5565 12.1923 31.3312 11.8629 31.0223 11.5787L24.4571 4.99125C24.1739 4.68125 23.8456 4.45521 23.4723 4.31312C23.099 4.17104 22.7063 4.1 22.2944 4.1C21.9082 4.1 21.522 4.17104 21.1358 4.31312C20.7497 4.45521 20.4021 4.68125 20.0931 4.99125L19.6683 5.4175L22.5261 8.32375C22.9123 8.68542 23.1955 9.09875 23.3757 9.56375C23.556 10.0287 23.6461 10.5196 23.6461 11.0362C23.6461 12.1212 23.2792 13.0319 22.5454 13.7681C21.8117 14.5044 20.9041 14.8725 19.8228 14.8725C19.3079 14.8725 18.8123 14.7821 18.336 14.6012C17.8597 14.4204 17.4413 14.1492 17.0809 13.7875L14.1845 10.92L7.42617 17.7012C7.34893 17.7787 7.291 17.8627 7.25238 17.9531C7.21377 18.0435 7.19446 18.1404 7.19446 18.2437C7.19446 18.4504 7.27169 18.6377 7.42617 18.8056C7.58064 18.9735 7.76087 19.0575 7.96683 19.0575C8.06982 19.0575 8.1728 19.0317 8.27578 18.98C8.37877 18.9283 8.456 18.8767 8.5075 18.825L13.7597 13.555L15.9223 15.725L10.7088 20.995C10.6315 21.0725 10.5736 21.1565 10.535 21.2469C10.4964 21.3373 10.4771 21.4342 10.4771 21.5375C10.4771 21.7442 10.5543 21.925 10.7088 22.08C10.8632 22.235 11.0435 22.3125 11.2494 22.3125C11.3524 22.3125 11.4554 22.2867 11.5584 22.235C11.6614 22.1833 11.7386 22.1317 11.7901 22.08L17.0423 16.8488L19.2049 19.0187L13.9914 24.2887C13.9141 24.3404 13.8562 24.4179 13.8176 24.5212C13.779 24.6246 13.7597 24.7279 13.7597 24.8312C13.7597 25.0379 13.8369 25.2188 13.9914 25.3737C14.1458 25.5287 14.3261 25.6062 14.532 25.6062C14.635 25.6062 14.7316 25.5869 14.8217 25.5481C14.9118 25.5094 14.9955 25.4513 15.0727 25.3737L20.3249 20.1425L22.4875 22.3125L17.2353 27.5825C17.1581 27.66 17.1002 27.744 17.0616 27.8344C17.0229 27.9248 17.0036 28.0217 17.0036 28.125C17.0036 28.3317 17.0873 28.5125 17.2547 28.6675C17.422 28.8225 17.6087 28.9 17.8146 28.9ZM17.776 32C16.8234 32 15.9802 31.6835 15.2465 31.0506C14.5127 30.4177 14.0815 29.6233 13.9527 28.6675C13.0774 28.5383 12.3436 28.1767 11.7515 27.5825C11.1593 26.9883 10.7989 26.2521 10.6701 25.3737C9.79479 25.2446 9.06747 24.8765 8.48819 24.2694C7.9089 23.6623 7.5549 22.9325 7.42617 22.08C6.44783 21.9508 5.6497 21.5246 5.0318 20.8013C4.4139 20.0779 4.10495 19.2254 4.10495 18.2437C4.10495 17.7271 4.2015 17.2298 4.39459 16.7519C4.58769 16.274 4.86446 15.8542 5.2249 15.4925L14.1845 6.54125L19.2435 11.6175C19.295 11.695 19.3723 11.7531 19.4752 11.7919C19.5782 11.8306 19.6812 11.85 19.7842 11.85C20.0159 11.85 20.209 11.779 20.3635 11.6369C20.5179 11.4948 20.5952 11.3075 20.5952 11.075C20.5952 10.9717 20.5759 10.8683 20.5373 10.765C20.4986 10.6617 20.4407 10.5842 20.3635 10.5325L14.841 4.99125C14.5578 4.68125 14.2295 4.45521 13.8562 4.31312C13.4829 4.17104 13.0903 4.1 12.6783 4.1C12.2921 4.1 11.906 4.17104 11.5198 4.31312C11.1336 4.45521 10.786 4.68125 10.4771 4.99125L5.0318 10.4937C4.80009 10.7262 4.607 10.9975 4.45252 11.3075C4.29805 11.6175 4.19506 11.9275 4.14357 12.2375C4.09208 12.5475 4.09208 12.864 4.14357 13.1869C4.19506 13.5098 4.29805 13.8133 4.45252 14.0975L2.21263 16.345C1.77495 15.7508 1.45313 15.0985 1.24716 14.3881C1.04119 13.6777 0.963956 12.9608 1.01545 12.2375C1.06694 11.5142 1.24716 10.8102 1.55611 10.1256C1.86506 9.44104 2.28987 8.8275 2.83053 8.285L8.27578 2.82125C8.89368 2.22708 9.58239 1.775 10.3419 1.465C11.1014 1.155 11.8802 1 12.6783 1C13.4764 1 14.2553 1.155 15.0148 1.465C15.7743 1.775 16.4501 2.22708 17.0423 2.82125L17.4671 3.2475L17.8919 2.82125C18.5098 2.22708 19.1985 1.775 19.958 1.465C20.7175 1.155 21.4963 1 22.2944 1C23.0925 1 23.8713 1.155 24.6308 1.465C25.3904 1.775 26.0662 2.22708 26.6583 2.82125L33.1849 9.37C33.7771 9.96417 34.2276 10.6487 34.5366 11.4237C34.8455 12.1987 35 12.9867 35 13.7875C35 14.5883 34.8455 15.3698 34.5366 16.1319C34.2276 16.894 33.7771 17.5721 33.1849 18.1662L20.5179 30.8375C20.1575 31.1992 19.7391 31.4833 19.2628 31.69C18.7865 31.8967 18.2909 32 17.776 32Z"/>
</mask>
<path d="M17.8146 28.9C17.9176 28.9 18.0206 28.8742 18.1236 28.8225C18.2266 28.7708 18.3038 28.7192 18.3553 28.6675L31.0223 15.9575C31.3312 15.6475 31.5565 15.2987 31.6981 14.9113C31.8397 14.5237 31.9105 14.1362 31.9105 13.7487C31.9105 13.3354 31.8397 12.9415 31.6981 12.5669C31.5565 12.1923 31.3312 11.8629 31.0223 11.5787L24.4571 4.99125C24.1739 4.68125 23.8456 4.45521 23.4723 4.31312C23.099 4.17104 22.7063 4.1 22.2944 4.1C21.9082 4.1 21.522 4.17104 21.1358 4.31312C20.7497 4.45521 20.4021 4.68125 20.0931 4.99125L19.6683 5.4175L22.5261 8.32375C22.9123 8.68542 23.1955 9.09875 23.3757 9.56375C23.556 10.0287 23.6461 10.5196 23.6461 11.0362C23.6461 12.1212 23.2792 13.0319 22.5454 13.7681C21.8117 14.5044 20.9041 14.8725 19.8228 14.8725C19.3079 14.8725 18.8123 14.7821 18.336 14.6012C17.8597 14.4204 17.4413 14.1492 17.0809 13.7875L14.1845 10.92L7.42617 17.7012C7.34893 17.7787 7.291 17.8627 7.25238 17.9531C7.21377 18.0435 7.19446 18.1404 7.19446 18.2437C7.19446 18.4504 7.27169 18.6377 7.42617 18.8056C7.58064 18.9735 7.76087 19.0575 7.96683 19.0575C8.06982 19.0575 8.1728 19.0317 8.27578 18.98C8.37877 18.9283 8.456 18.8767 8.5075 18.825L13.7597 13.555L15.9223 15.725L10.7088 20.995C10.6315 21.0725 10.5736 21.1565 10.535 21.2469C10.4964 21.3373 10.4771 21.4342 10.4771 21.5375C10.4771 21.7442 10.5543 21.925 10.7088 22.08C10.8632 22.235 11.0435 22.3125 11.2494 22.3125C11.3524 22.3125 11.4554 22.2867 11.5584 22.235C11.6614 22.1833 11.7386 22.1317 11.7901 22.08L17.0423 16.8488L19.2049 19.0187L13.9914 24.2887C13.9141 24.3404 13.8562 24.4179 13.8176 24.5212C13.779 24.6246 13.7597 24.7279 13.7597 24.8312C13.7597 25.0379 13.8369 25.2188 13.9914 25.3737C14.1458 25.5287 14.3261 25.6062 14.532 25.6062C14.635 25.6062 14.7316 25.5869 14.8217 25.5481C14.9118 25.5094 14.9955 25.4513 15.0727 25.3737L20.3249 20.1425L22.4875 22.3125L17.2353 27.5825C17.1581 27.66 17.1002 27.744 17.0616 27.8344C17.0229 27.9248 17.0036 28.0217 17.0036 28.125C17.0036 28.3317 17.0873 28.5125 17.2547 28.6675C17.422 28.8225 17.6087 28.9 17.8146 28.9ZM17.776 32C16.8234 32 15.9802 31.6835 15.2465 31.0506C14.5127 30.4177 14.0815 29.6233 13.9527 28.6675C13.0774 28.5383 12.3436 28.1767 11.7515 27.5825C11.1593 26.9883 10.7989 26.2521 10.6701 25.3737C9.79479 25.2446 9.06747 24.8765 8.48819 24.2694C7.9089 23.6623 7.5549 22.9325 7.42617 22.08C6.44783 21.9508 5.6497 21.5246 5.0318 20.8013C4.4139 20.0779 4.10495 19.2254 4.10495 18.2437C4.10495 17.7271 4.2015 17.2298 4.39459 16.7519C4.58769 16.274 4.86446 15.8542 5.2249 15.4925L14.1845 6.54125L19.2435 11.6175C19.295 11.695 19.3723 11.7531 19.4752 11.7919C19.5782 11.8306 19.6812 11.85 19.7842 11.85C20.0159 11.85 20.209 11.779 20.3635 11.6369C20.5179 11.4948 20.5952 11.3075 20.5952 11.075C20.5952 10.9717 20.5759 10.8683 20.5373 10.765C20.4986 10.6617 20.4407 10.5842 20.3635 10.5325L14.841 4.99125C14.5578 4.68125 14.2295 4.45521 13.8562 4.31312C13.4829 4.17104 13.0903 4.1 12.6783 4.1C12.2921 4.1 11.906 4.17104 11.5198 4.31312C11.1336 4.45521 10.786 4.68125 10.4771 4.99125L5.0318 10.4937C4.80009 10.7262 4.607 10.9975 4.45252 11.3075C4.29805 11.6175 4.19506 11.9275 4.14357 12.2375C4.09208 12.5475 4.09208 12.864 4.14357 13.1869C4.19506 13.5098 4.29805 13.8133 4.45252 14.0975L2.21263 16.345C1.77495 15.7508 1.45313 15.0985 1.24716 14.3881C1.04119 13.6777 0.963956 12.9608 1.01545 12.2375C1.06694 11.5142 1.24716 10.8102 1.55611 10.1256C1.86506 9.44104 2.28987 8.8275 2.83053 8.285L8.27578 2.82125C8.89368 2.22708 9.58239 1.775 10.3419 1.465C11.1014 1.155 11.8802 1 12.6783 1C13.4764 1 14.2553 1.155 15.0148 1.465C15.7743 1.775 16.4501 2.22708 17.0423 2.82125L17.4671 3.2475L17.8919 2.82125C18.5098 2.22708 19.1985 1.775 19.958 1.465C20.7175 1.155 21.4963 1 22.2944 1C23.0925 1 23.8713 1.155 24.6308 1.465C25.3904 1.775 26.0662 2.22708 26.6583 2.82125L33.1849 9.37C33.7771 9.96417 34.2276 10.6487 34.5366 11.4237C34.8455 12.1987 35 12.9867 35 13.7875C35 14.5883 34.8455 15.3698 34.5366 16.1319C34.2276 16.894 33.7771 17.5721 33.1849 18.1662L20.5179 30.8375C20.1575 31.1992 19.7391 31.4833 19.2628 31.69C18.7865 31.8967 18.2909 32 17.776 32Z" fill="#1D4645" stroke="#C2F6C8" stroke-width="0.4" mask="url(#path-1-inside-1_63758_187)"/>
</svg>
